<?xml version="1.0" encoding="UTF-8" standalone="no"?>
<svg width="20px" height="21px" viewBox="0 0 20 21" version="1.1" xmlns="http://www.w3.org/2000/svg" xmlns:xlink="http://www.w3.org/1999/xlink" xmlns:sketch="http://www.bohemiancoding.com/sketch/ns">
    <!-- Generator: Sketch 3.3.3 (12072) - http://www.bohemiancoding.com/sketch -->
    <title>Imported Layers</title>
    <desc>Created with Sketch.</desc>
    <defs></defs>
    <g id="Page-1" stroke="none" stroke-width="1" fill="none" fill-rule="evenodd" sketch:type="MSPage">
        <g id="Jarduino-04" sketch:type="MSArtboardGroup" transform="translate(-420.000000, -604.000000)" fill="#17A1E6">
            <path d="M437.159332,615.747602 C437.200332,615.426602 437.229332,615.106602 437.229332,614.766602 C437.229332,614.426602 437.200332,614.106602 437.159332,613.786602 L439.269332,612.136602 C439.459332,611.986602 439.508332,611.716602 439.389332,611.496602 L437.389332,608.036602 C437.269332,607.816602 436.998332,607.736602 436.779332,607.816602 L434.289332,608.816602 C433.769332,608.416602 433.209332,608.086602 432.599332,607.836602 L432.219332,605.186602 C432.189332,604.946602 431.979332,604.766602 431.729332,604.766602 L427.729332,604.766602 C427.479332,604.766602 427.269332,604.946602 427.239332,605.186602 L426.859332,607.836602 C426.249332,608.086602 425.689332,608.426602 425.169332,608.816602 L422.679332,607.816602 C422.449332,607.726602 422.189332,607.816602 422.069332,608.036602 L420.069332,611.496602 C419.939332,611.716602 419.999332,611.986602 420.189332,612.136602 L422.299332,613.786602 C422.259332,614.106602 422.229332,614.436602 422.229332,614.766602 C422.229332,615.096602 422.259332,615.426602 422.299332,615.747602 L420.189332,617.396602 C419.999332,617.546602 419.949332,617.816602 420.069332,618.036602 L422.069332,621.497602 C422.189332,621.716602 422.459332,621.796602 422.679332,621.716602 L425.169332,620.716602 C425.689332,621.116602 426.249332,621.446602 426.859332,621.696602 L427.239332,624.346602 C427.269332,624.586602 427.479332,624.766602 427.729332,624.766602 L431.729332,624.766602 C431.979332,624.766602 432.189332,624.586602 432.219332,624.346602 L432.599332,621.696602 C433.209332,621.446602 433.769332,621.106602 434.289332,620.716602 L436.779332,621.716602 C437.008332,621.806602 437.269332,621.716602 437.389332,621.497602 L439.389332,618.036602 C439.508332,617.816602 439.459332,617.546602 439.269332,617.396602 L437.159332,615.747602 L437.159332,615.747602 Z M429.729332,618.266602 C427.799332,618.266602 426.229332,616.696602 426.229332,614.766602 C426.229332,612.836602 427.799332,611.266602 429.729332,611.266602 C431.659332,611.266602 433.229332,612.836602 433.229332,614.766602 C433.229332,616.696602 431.659332,618.266602 429.729332,618.266602 L429.729332,618.266602 Z" id="Imported-Layers" sketch:type="MSShapeGroup"></path>
        </g>
    </g>
</svg>